<?xml version="1.0" standalone="no"?>
<!DOCTYPE svg PUBLIC "-//W3C//DTD SVG 20010904//EN"
 "http://www.w3.org/TR/2001/REC-SVG-20010904/DTD/svg10.dtd">
<svg version="1.0" xmlns="http://www.w3.org/2000/svg"
 width="228.000000pt" height="115.000000pt" viewBox="0 0 228.000000 115.000000"
 preserveAspectRatio="xMidYMid meet">
<metadata>
Created by potrace 1.16, written by Peter Selinger 2001-2019
</metadata>
<g transform="translate(0.000000,115.000000) scale(0.100000,-0.100000)"
fill="#000000" stroke="none">
<path d="M120 670 l0 -200 385 0 385 0 0 200 0 200 -385 0 -385 0 0 -200z
m160 78 l23 -41 25 41 c22 38 28 42 64 42 l39 0 -45 -63 -44 -62 43 -60 c24
-33 44 -63 45 -67 0 -5 -16 -8 -35 -8 -29 0 -39 6 -61 40 -15 22 -30 40 -35
40 -5 0 -18 -18 -29 -40 -19 -37 -24 -40 -61 -40 l-41 0 18 28 c10 15 30 44
46 66 15 21 25 44 21 50 -3 6 -18 29 -33 51 -45 67 -45 65 -2 65 35 0 41 -4
62 -42z m319 -23 c26 -13 41 -33 41 -56 0 -15 -60 -10 -66 6 -8 20 -50 19 -58
-1 -11 -28 -6 -72 9 -88 17 -17 40 -12 49 10 6 15 66 20 66 5 0 -38 -47 -71
-102 -71 -94 0 -131 122 -57 184 35 29 76 33 118 11z m220 1 c28 -15 51 -53
51 -86 0 -18 -7 -20 -70 -20 -55 0 -70 -3 -70 -15 0 -24 34 -36 56 -20 21 16
74 20 74 6 0 -23 -38 -53 -75 -57 -55 -8 -92 9 -111 50 -46 95 51 190 145 142z"/>
<path d="M900 682 c0 -141 4 -152 57 -152 28 0 33 4 33 24 0 13 -7 27 -16 30
-13 5 -15 23 -12 116 l3 110 -32 0 -33 0 0 -128z"/>
<path d="M1630 761 c0 -21 -5 -31 -15 -31 -8 0 -15 -9 -15 -20 0 -11 7 -20 15
-20 12 0 15 -14 15 -64 0 -77 14 -96 71 -96 32 0 39 4 39 19 0 11 -9 23 -20
26 -17 5 -20 15 -20 61 0 47 2 54 20 54 13 0 20 7 20 20 0 13 -7 20 -19 20
-14 0 -21 8 -23 28 -2 22 -8 28 -35 30 -31 3 -33 1 -33 -27z"/>
<path d="M1041 714 c-56 -47 -48 -150 15 -174 59 -23 144 4 144 46 0 18 -49
18 -74 -1 -22 -16 -56 -4 -56 20 0 12 15 15 70 15 63 0 70 2 70 20 0 84 -103
130 -169 74z"/>
<path d="M1240 632 l0 -103 33 3 c32 3 32 3 37 67 5 64 10 72 53 85 25 8 23
56 -2 56 -11 0 -27 -7 -35 -16 -9 -8 -16 -11 -16 -6 0 5 -16 12 -35 14 l-35 4
0 -104z"/>
<path d="M1417 708 l-32 -33 34 -3 c19 -2 37 2 41 8 9 14 42 10 47 -6 2 -6
-13 -14 -34 -17 -21 -4 -48 -14 -60 -22 -28 -20 -30 -65 -5 -88 21 -19 73 -22
89 -6 8 8 13 8 17 0 4 -6 21 -11 38 -11 l30 0 -3 86 c-4 76 -7 88 -28 105 -14
12 -39 19 -63 19 -31 0 -46 -7 -71 -32z"/>
<path d="M1814 730 c-35 -14 -54 -50 -54 -101 0 -40 4 -51 31 -73 46 -39 101
-36 142 7 l32 32 -34 3 c-19 2 -37 -1 -40 -5 -12 -19 -41 -22 -56 -7 -27 27
-16 34 55 34 l70 0 0 31 c0 43 -47 89 -92 88 -18 0 -43 -4 -54 -9z"/>
</g>
</svg>
