<?xml version="1.0" standalone="no"?>
<!DOCTYPE svg PUBLIC "-//W3C//DTD SVG 20010904//EN"
 "http://www.w3.org/TR/2001/REC-SVG-20010904/DTD/svg10.dtd">
<svg version="1.0" xmlns="http://www.w3.org/2000/svg"
 width="750.000000pt" height="750.000000pt" viewBox="0 0 750.000000 750.000000"
 preserveAspectRatio="xMidYMid meet">
<metadata>
Created by potrace 1.16, written by Peter Selinger 2001-2019
</metadata>
<g transform="translate(0.000000,750.000000) scale(0.100000,-0.100000)"
fill="#000000" stroke="none">
<path d="M6547 4717 l-138 -242 141 -3 c77 -1 203 -1 279 0 l139 3 -135 235
c-74 129 -138 238 -141 242 -4 3 -69 -103 -145 -235z"/>
<path d="M750 4200 l0 -680 1305 0 1305 0 0 680 0 680 -1305 0 -1305 0 0 -680z
m540 264 l82 -146 84 138 c46 76 87 141 92 146 5 5 66 7 136 6 l127 -3 -151
-212 c-91 -128 -149 -217 -144 -224 4 -7 74 -108 155 -226 l148 -214 -136 3
-136 3 -86 139 c-47 76 -90 138 -96 139 -5 0 -46 -64 -90 -141 l-80 -141 -138
-1 c-108 0 -137 3 -131 13 4 6 73 104 152 216 80 112 145 209 146 215 0 6 -63
107 -142 224 l-142 212 134 0 134 0 82 -146z m1083 -72 c92 -46 157 -133 157
-212 l0 -30 -109 0 -109 0 -6 34 c-10 51 -50 86 -100 86 -76 0 -114 -48 -123
-158 -7 -82 10 -168 40 -206 17 -21 34 -29 67 -33 54 -6 92 19 111 72 l13 35
112 0 112 0 -7 -32 c-33 -142 -157 -230 -331 -232 -150 -2 -249 51 -310 165
-31 57 -35 74 -38 161 -8 197 70 317 243 375 24 8 74 12 126 10 74 -3 96 -8
152 -35z m737 6 c118 -54 181 -155 188 -300 l4 -88 -237 0 -238 0 6 -36 c12
-73 50 -104 128 -104 31 0 47 7 68 28 15 15 30 33 32 40 3 10 32 12 116 10
l113 -3 -24 -51 c-61 -132 -216 -203 -382 -176 -124 21 -205 78 -253 181 -23
50 -26 68 -26 166 0 98 3 116 26 166 44 94 129 164 226 189 69 17 192 7 253
-22z"/>
<path d="M2887 4259 c-21 -12 -59 -88 -51 -101 3 -4 52 -8 110 -8 113 0 127 7
104 52 -27 51 -51 68 -99 68 -25 0 -54 -5 -64 -11z"/>
<path d="M3400 4247 c0 -390 1 -425 18 -456 30 -56 71 -71 189 -71 l103 0 0
80 0 80 -28 0 c-15 0 -33 5 -40 12 -9 9 -12 110 -12 395 l0 383 -115 0 -115 0
0 -423z"/>
<path d="M5900 4500 l0 -90 -55 0 -56 0 3 -72 3 -73 35 -2 c19 0 43 -2 52 -2
15 -1 17 -23 20 -218 3 -188 6 -223 21 -251 33 -60 137 -90 272 -77 l75 7 0
74 0 74 -47 0 c-87 0 -93 15 -93 224 l0 165 73 3 72 3 3 73 3 72 -76 0 -75 0
0 90 0 90 -115 0 -115 0 0 -90z"/>
<path d="M4017 4420 c-97 -25 -182 -95 -226 -189 -23 -50 -26 -68 -26 -166 0
-105 2 -114 33 -178 59 -119 157 -172 317 -171 162 2 265 65 320 197 l15 37
-114 0 c-105 0 -115 -2 -121 -20 -10 -32 -54 -60 -96 -60 -76 0 -114 32 -126
104 l-6 36 238 0 237 0 -4 88 c-7 145 -70 245 -188 300 -61 29 -184 39 -253
22z m160 -172 c28 -31 45 -67 40 -82 -4 -9 -35 -13 -108 -14 -56 -1 -106 1
-110 4 -13 7 18 76 42 97 32 26 110 23 136 -5z"/>
<path d="M4905 4414 c-43 -22 -64 -44 -89 -89 l-21 -40 -3 63 -3 62 -114 0
-115 0 0 -340 0 -340 115 0 115 0 0 118 c0 153 15 276 38 315 25 44 72 68 142
74 l60 6 0 93 0 94 -47 0 c-27 0 -61 -7 -78 -16z"/>
<path d="M5307 4420 c-116 -30 -192 -104 -211 -207 l-5 -33 108 0 109 0 12 35
c14 41 35 55 84 55 48 0 76 -29 76 -79 l0 -38 -87 -6 c-108 -7 -177 -27 -232
-67 -129 -94 -117 -269 23 -343 92 -48 259 -17 289 55 l14 33 8 -47 7 -48 115
0 c104 0 115 2 109 17 -4 9 -9 120 -12 247 -6 255 -12 297 -55 349 -46 56
-108 79 -219 83 -52 2 -112 -1 -133 -6z m173 -446 c0 -37 -5 -51 -29 -75 -53
-53 -141 -31 -141 35 0 52 48 83 133 85 l37 1 0 -46z"/>
<path d="M6587 4420 c-97 -25 -182 -95 -226 -189 -23 -50 -26 -68 -26 -166 0
-105 2 -114 33 -178 58 -118 157 -172 312 -172 99 1 146 14 215 61 53 35 84
74 110 137 l15 37 -114 0 c-105 0 -115 -2 -121 -20 -10 -32 -54 -60 -96 -60
-76 0 -114 32 -126 104 l-6 36 238 0 237 0 -4 88 c-7 145 -70 246 -188 300
-61 29 -184 39 -253 22z m160 -172 c25 -28 43 -62 43 -81 0 -12 -21 -14 -107
-14 -60 0 -111 2 -115 4 -12 6 20 76 43 96 32 26 110 23 136 -5z"/>
<path d="M4560 3535 c0 -3 11 -33 25 -66 19 -47 23 -71 18 -105 -5 -42 -5 -44
19 -44 22 0 26 6 32 42 4 23 18 57 31 75 14 18 37 49 51 68 l26 35 -28 0 c-23
-1 -36 -10 -60 -46 l-32 -46 -14 43 c-12 36 -20 45 -41 47 -15 2 -27 1 -27 -3z"/>
<path d="M5342 3468 c-6 -40 -15 -90 -18 -110 -6 -36 -5 -38 18 -38 22 0 26 6
32 40 6 39 7 40 47 40 31 0 47 7 70 29 34 34 37 63 9 91 -16 16 -33 20 -83 20
l-63 0 -12 -72z"/>
<path d="M4787 3479 c-21 -12 -47 -61 -47 -87 0 -11 9 -31 21 -46 16 -21 29
-26 63 -26 49 0 79 18 96 59 14 34 8 72 -16 95 -18 18 -89 21 -117 5z"/>
<path d="M4953 3423 c-15 -95 -9 -102 77 -101 63 0 71 3 75 22 31 148 30 146
2 146 -21 0 -25 -8 -38 -62 -25 -110 -81 -108 -63 2 l10 60 -26 0 c-25 0 -27
-4 -37 -67z"/>
<path d="M5555 3467 c-37 -31 -45 -97 -16 -126 31 -31 104 -29 136 4 34 33 37
95 8 128 -24 26 -95 23 -128 -6z"/>
<path d="M5875 3468 c-34 -30 -44 -88 -21 -123 14 -21 24 -25 61 -25 44 0 85
24 85 50 0 16 -36 12 -50 -5 -17 -20 -54 -15 -58 8 -3 15 5 17 57 17 49 0 60
3 63 18 5 21 -9 64 -25 74 -25 16 -86 8 -112 -14z"/>
<path d="M6055 3478 c-6 -18 -25 -129 -25 -145 0 -7 11 -13 24 -13 21 0 25 6
31 50 8 60 34 96 60 86 15 -5 17 -14 11 -56 -4 -28 -9 -57 -12 -65 -5 -11 1
-15 20 -15 30 0 40 26 41 110 l0 55 -38 3 c-21 2 -46 -3 -55 -10 -12 -10 -14
-10 -8 0 5 8 -1 12 -19 12 -14 0 -28 -6 -30 -12z"/>
<path d="M6477 3472 c-10 -10 -17 -24 -17 -30 0 -17 37 -15 44 3 3 8 15 15 26
15 28 0 23 -34 -5 -38 -52 -8 -66 -14 -81 -36 -12 -19 -13 -29 -5 -45 10 -17
21 -20 75 -20 72 1 71 -1 81 83 5 39 4 61 -5 71 -18 22 -93 20 -113 -3z"/>
</g>
</svg>
